<?xml version="1.0" standalone="no"?>
<!DOCTYPE svg PUBLIC "-//W3C//DTD SVG 20010904//EN"
 "http://www.w3.org/TR/2001/REC-SVG-20010904/DTD/svg10.dtd">
<svg version="1.0" xmlns="http://www.w3.org/2000/svg"
 width="1014.000000pt" height="1014.000000pt" viewBox="0 0 1014.000000 1014.000000"
 preserveAspectRatio="xMidYMid meet">

<g transform="translate(0.000000,1014.000000) scale(0.100000,-0.100000)"
fill="#000000" stroke="none">
<path d="M920 9700 c-208 -31 -401 -173 -495 -362 -80 -163 -76 -51 -73 -1833
l3 -1580 23 -70 c59 -177 189 -329 344 -404 127 -62 185 -70 463 -72 l240 -1
424 -445 c370 -388 431 -449 479 -471 144 -66 318 3 383 152 21 49 22 67 27
409 l5 357 133 0 134 0 0 291 0 290 -312 -3 c-293 -3 -316 -4 -359 -24 -64
-30 -116 -79 -147 -138 -24 -47 -27 -64 -32 -200 l-5 -148 -220 227 c-180 187
-230 233 -275 254 -55 26 -57 26 -373 31 l-319 5 -19 24 c-19 23 -19 62 -19
1553 l0 1530 29 29 29 29 1597 0 1597 0 29 -29 29 -29 0 -446 0 -446 291 0
290 0 -4 488 c-4 531 -3 524 -65 655 -64 135 -172 246 -307 312 -153 76 0 70
-1830 71 -902 1 -1665 -2 -1695 -6z"/>
<path d="M6215 9061 c-93 -23 -184 -107 -210 -194 -12 -40 -15 -116 -15 -369
l0 -318 290 0 290 0 0 155 0 155 1265 0 1265 0 0 -1130 0 -1130 -408 0 c-453
0 -465 -1 -538 -65 -24 -20 -100 -131 -199 -289 -88 -140 -163 -256 -167 -256
-3 0 -8 91 -10 203 -3 197 -4 203 -30 253 -28 53 -76 101 -131 131 -28 16 -66
18 -299 21 l-268 3 0 -285 0 -286 75 0 c41 0 76 -1 77 -2 1 -2 5 -214 8 -473
5 -468 5 -470 29 -523 79 -176 307 -227 446 -99 25 23 218 278 429 567 l382
525 490 5 489 5 54 30 c29 16 69 50 88 74 67 89 64 -8 61 1617 l-3 1469 -27
50 c-34 64 -80 108 -143 137 l-50 23 -1605 2 c-883 0 -1618 -2 -1635 -6z"/>
<path d="M1425 8518 c-42 -15 -93 -65 -106 -106 -25 -75 17 -169 87 -198 28
-12 237 -14 1282 -14 l1249 0 34 23 c104 70 107 209 6 275 l-41 27 -1240 2
c-847 1 -1251 -2 -1271 -9z"/>
<path d="M3359 8026 c-87 -31 -139 -79 -178 -166 -20 -45 -21 -59 -21 -1701 0
-1878 -8 -1713 84 -1805 84 -84 86 -84 542 -84 l393 0 3 -302 c3 -302 3 -303
29 -358 72 -153 242 -216 386 -144 52 26 95 70 402 417 l344 387 632 0 c712 0
687 -2 774 76 29 26 58 65 72 96 l24 53 0 1660 0 1660 -21 46 c-30 63 -79 116
-138 147 l-51 27 -1620 2 c-1308 2 -1627 0 -1656 -11z m2911 -1871 l0 -1305
-533 0 c-582 0 -610 -2 -687 -58 -22 -15 -94 -90 -162 -166 l-123 -140 -6 75
c-3 41 -13 91 -22 111 -24 56 -91 123 -150 149 -51 24 -56 24 -454 27 l-403 3
0 1305 0 1304 1270 0 1270 0 0 -1305z"/>
<path d="M4162 6783 c-117 -57 -116 -231 2 -287 31 -14 117 -16 844 -16 l809
0 34 23 c37 24 79 97 79 137 0 40 -42 113 -79 137 l-34 23 -811 0 c-728 0
-814 -2 -844 -17z"/>
<path d="M4186 6240 c-67 -21 -123 -111 -111 -181 8 -48 56 -106 102 -125 26
-11 182 -14 825 -14 780 0 792 0 834 21 97 47 122 165 51 246 -58 66 -16 63
-884 62 -433 0 -801 -5 -817 -9z"/>
<path d="M4161 5673 c-49 -24 -85 -84 -85 -142 0 -89 62 -154 157 -166 29 -3
394 -5 812 -3 841 3 791 -1 848 68 47 56 45 141 -5 205 -44 57 -19 55 -890 55
-726 0 -806 -2 -837 -17z"/>
<path d="M1441 7660 c-39 -9 -77 -35 -105 -74 -16 -20 -21 -42 -21 -86 0 -66
18 -99 75 -137 l33 -23 788 0 789 0 0 165 0 165 -762 -1 c-420 -1 -778 -5
-797 -9z"/>
<path d="M7253 7494 c-25 -14 -54 -44 -69 -70 -23 -39 -26 -53 -22 -109 3 -53
9 -71 34 -102 17 -21 50 -48 75 -61 82 -43 191 -13 245 67 30 46 40 116 24
166 -16 47 -66 104 -107 121 -53 23 -132 18 -180 -12z"/>
<path d="M7855 7504 c-45 -23 -76 -55 -96 -99 -34 -72 -17 -157 41 -215 58
-58 143 -75 215 -41 108 50 148 169 93 276 -32 61 -93 95 -170 95 -29 0 -66
-7 -83 -16z"/>
<path d="M8418 7491 c-109 -69 -118 -230 -18 -314 155 -131 386 45 301 228
-36 79 -95 115 -185 115 -40 0 -62 -7 -98 -29z"/>
<path d="M1390 6778 c-57 -39 -75 -72 -75 -138 0 -66 18 -99 75 -137 l33 -23
788 0 789 0 0 160 0 160 -789 0 -788 0 -33 -22z"/>
<path d="M1845 3330 c-109 -23 -155 -40 -265 -96 -187 -95 -339 -253 -435
-449 -81 -166 -99 -245 -99 -440 0 -135 3 -173 23 -245 46 -172 144 -344 267
-467 l63 -62 -57 -32 c-184 -102 -379 -294 -495 -486 -107 -178 -182 -410
-194 -596 l-6 -97 236 0 237 0 0 40 c0 109 57 288 130 412 50 84 171 213 256
274 80 58 211 119 309 146 115 31 345 31 460 0 375 -102 658 -428 691 -798 l7
-74 235 0 235 0 -6 93 c-23 319 -167 627 -407 867 -87 86 -225 192 -307 234
l-32 16 62 63 c124 123 222 295 268 467 33 123 34 356 1 484 -27 107 -94 254
-156 341 -231 323 -639 485 -1021 405z m324 -465 c93 -22 177 -71 251 -145
213 -213 213 -539 1 -751 -213 -213 -552 -211 -759 5 -205 213 -202 538 7 747
134 134 317 187 500 144z"/>
<path d="M4888 3334 c-506 -91 -874 -579 -818 -1087 26 -234 117 -429 281
-601 l68 -72 -112 -74 c-193 -127 -387 -341 -487 -539 -74 -149 -130 -348
-145 -523 l-7 -78 235 0 236 0 6 47 c29 242 115 426 274 583 123 122 275 206
447 247 116 27 320 24 434 -6 166 -44 304 -124 426 -245 149 -150 235 -323
265 -540 l12 -86 235 0 235 0 -7 83 c-38 449 -290 851 -684 1092 l-62 38 68
71 c87 91 132 154 181 252 75 153 105 279 105 449 0 175 -30 299 -111 457
-201 394 -640 611 -1075 532z m354 -483 c216 -75 360 -275 361 -501 1 -97 -17
-168 -62 -255 -111 -214 -364 -329 -596 -270 -188 48 -335 189 -389 374 -21
72 -21 221 0 292 57 192 213 337 409 379 63 14 213 4 277 -19z"/>
<path d="M7923 3336 c-301 -57 -563 -246 -707 -508 -217 -394 -147 -878 173
-1195 l63 -62 -34 -17 c-57 -29 -150 -95 -232 -163 -273 -228 -458 -589 -483
-943 l-6 -88 235 0 235 0 7 69 c12 135 77 310 158 430 46 67 154 177 224 227
80 57 210 119 309 145 106 29 335 32 439 6 314 -79 566 -304 668 -597 26 -76
48 -183 48 -236 l0 -44 239 0 240 0 -5 58 c-28 334 -158 632 -379 870 -80 85
-235 209 -317 252 -27 14 -48 27 -48 30 0 3 30 37 67 75 479 500 332 1307
-292 1606 -55 27 -138 58 -185 69 -109 28 -314 35 -417 16z m296 -471 c238
-56 411 -275 411 -520 0 -295 -243 -536 -539 -535 -224 1 -428 150 -503 368
-18 52 -23 89 -23 167 0 78 5 115 23 167 91 264 362 416 631 353z"/>
</g>
</svg>
